<svg width="176" height="37" viewBox="0 0 176 37" fill="none" xmlns="http://www.w3.org/2000/svg">
<path d="M0.416992 5.04185C0.416992 5.05976 1.2834 6.08082 2.34695 7.31086L4.27692 9.53807H8.94099H13.5999L13.8697 9.83065C14.0201 9.99187 14.4663 10.4516 14.871 10.8577C15.2704 11.2637 16.3444 12.3624 17.2575 13.2998C18.1654 14.2373 19.1252 15.2225 19.3794 15.4793C19.6388 15.742 19.8567 15.9689 19.8723 15.9868C19.8878 16.0047 20.308 16.4347 20.8061 16.9422C21.3042 17.4497 21.74 17.8976 21.7659 17.9334C21.797 17.9692 22.321 18.5066 22.9332 19.1276C23.5454 19.7426 24.0746 20.28 24.1057 20.3158C24.1368 20.3457 24.5311 20.7517 24.9825 21.2115C25.4339 21.6713 26.072 22.3221 26.3988 22.6565C26.7931 23.0625 28.609 24.9225 28.666 24.8986C28.7283 24.8807 27.1407 23.2178 27.094 23.2536C27.0474 23.2954 27.0629 23.3432 27.1563 23.4447C27.2289 23.5223 27.3068 23.5641 27.3379 23.5462C27.3742 23.5163 27.4416 23.2879 27.4209 23.3536C27.3898 23.4492 27.3379 23.7074 27.452 23.5999C27.561 23.4984 27.3522 23.0506 27.2847 23.1521C27.2173 23.2536 27.4365 23.7194 27.5765 23.8507C27.6647 23.9343 27.8308 24.1075 27.9553 24.2329C28.0953 24.3821 28.2095 24.4478 28.2666 24.4299C28.3288 24.406 28.2653 24.303 28.2186 24.3389C28.1667 24.3807 28.2821 24.5672 28.4689 24.7643C28.6038 24.9076 28.8372 25.1464 28.9773 25.2957C29.1226 25.451 29.4598 25.7973 29.7296 26.0779C30.2899 26.6452 31.094 27.4811 31.2549 27.6603C31.3119 27.7259 31.5765 27.9946 31.8359 28.2574C32.0953 28.5201 32.5467 28.9858 32.8476 29.2963C33.1433 29.6068 33.5843 30.0666 33.8282 30.3174C34.072 30.5682 34.5182 31.0339 34.8295 31.3564L35.3846 31.9355V18.4708V5.00005H33.4391H31.4935V13.0371C31.4935 17.9871 31.4728 21.0622 31.4468 21.0503C31.4209 21.0383 31.2601 20.8831 31.094 20.704C30.928 20.5189 30.4663 20.0412 30.0668 19.6351C29.6673 19.2231 29.3197 18.8649 29.2886 18.829C29.2419 18.7693 28.0383 17.5214 27.5039 16.972C27.4053 16.8765 27.286 16.7511 27.2445 16.7033C27.1978 16.6556 26.6686 16.1062 26.072 15.4853C25.4702 14.8643 24.7594 14.1238 24.4896 13.8432C24.2199 13.5566 23.5091 12.8162 22.9073 12.2012C22.3106 11.5802 21.7036 10.9472 21.5584 10.792C21.4183 10.6427 20.7387 9.93813 20.0538 9.23354C19.3742 8.53493 18.4767 7.60344 18.0668 7.17949C17.6518 6.74958 17.0084 6.08679 16.6349 5.70464L15.9553 5.00005H8.18872C3.91375 5.00005 0.416992 5.01796 0.416992 5.04185Z" fill="url(#paint0_linear_105_39)"/>
<path d="M2.33157 18.4648C1.25764 19.6949 0.391234 20.7099 0.411986 20.7219C0.42755 20.7279 4.81666 20.7219 10.1604 20.704L19.8828 20.6741L17.9321 18.4469L15.9866 16.2257H10.1344H4.28229L2.33157 18.4648Z" fill="url(#paint1_linear_105_39)"/>
<path d="M3.8504 27.8453C3.61174 28.1081 2.9788 28.7888 2.43405 29.356C1.89449 29.9292 1.28749 30.5741 1.08515 30.7951C0.888008 31.016 0.644169 31.2668 0.555972 31.3563C0.421082 31.4817 0.384766 31.5653 0.384766 31.7206V31.9236L10.6986 31.9176C16.3692 31.9116 21.1474 31.8878 21.3186 31.8639C21.4898 31.84 21.5728 31.8161 21.5002 31.8101C21.4276 31.8042 21.3342 31.7743 21.2927 31.7445C21.2304 31.6967 21.2356 31.6847 21.329 31.6847C21.4172 31.6847 21.4328 31.6609 21.4068 31.5534C21.3913 31.4758 21.3238 31.3683 21.2564 31.3086C21.1889 31.2489 21.137 31.1712 21.137 31.1354C21.137 31.1055 21.0644 30.9682 20.9762 30.8428C20.8569 30.6697 20.8361 30.6099 20.8984 30.6099C21.0229 30.6099 20.997 30.4965 20.8517 30.3592L20.722 30.2457V28.9918C20.722 27.7498 20.722 27.7379 20.8413 27.6841L20.9555 27.6304H20.8413C20.7791 27.6244 20.7168 27.6005 20.6961 27.5647C20.6805 27.5348 26.5456 28.1842 25.923 27.6468C26.1305 27.6408 19.9386 27.4632 18.128 27.4572C16.3173 27.4513 12.4574 27.4274 9.55727 27.4035L4.27582 27.3677L3.8504 27.8453Z" fill="url(#paint2_linear_105_39)"/>
<path d="M25.67 27.8319C25.4995 28.0397 20.2238 28.1997 20.5339 28.1677C20.7819 28.1358 26.1308 28.1191 26.0998 28.2629C26.0688 28.3908 26.1463 28.4388 26.2858 28.3908C26.5183 28.2949 26.9523 28.6945 26.7973 28.8703C26.6423 29.0302 26.9988 29.5577 27.2468 29.5577C27.4328 29.5577 27.4018 29.4778 27.1383 29.238C26.9368 29.0781 26.8438 28.9343 26.9368 28.9183C27.0298 28.9183 27.2313 29.0622 27.3863 29.238C27.6344 29.5257 27.6344 29.5577 27.4018 29.6536C27.2468 29.7175 27.0143 29.6376 26.8593 29.4938C26.6268 29.286 26.5338 29.27 26.4408 29.4138C26.3788 29.5257 26.4098 29.6536 26.5028 29.6856C26.6113 29.7175 19.7362 27.4609 19.7362 27.5408C19.7362 27.7326 19.8632 31.1402 19.5222 31.3001C19.3052 31.396 25.3558 31.2361 25.8363 31.3001C26.0008 31.1458 19.5252 31.2041 19.3082 31.3001C19.1532 31.364 19.6182 31.6672 19.3082 31.6832C18.9672 31.6832 14.7362 31.9295 25.8761 31.9135C27.5723 31.9295 30.6348 32.0894 30.5728 31.9295C30.4953 31.7377 26.0156 27.6464 25.8761 27.6464C25.7986 27.6464 19.6277 27.4609 19.7362 27.5408C19.8912 27.6367 27.5183 31.616 28.2576 31.1458C28.0716 31.2897 27.9754 30.293 28.0219 29.9253C28.0529 29.5737 27.9599 29.3979 27.5724 29.1261C27.2933 28.9343 26.8283 28.5187 26.5338 28.215C25.9138 27.5756 25.9336 27.5122 25.67 27.8319Z" fill="url(#paint3_linear_105_39)"/>
<path d="M49.1048 29C48.0994 29 47.2848 28.688 46.6608 28.064C46.0368 27.44 45.7248 26.6253 45.7248 25.62V11.164C45.7248 10.1587 46.0194 9.37867 46.6088 8.824C47.1981 8.23467 47.9781 7.94 48.9488 7.94H56.8008C58.2568 7.94 58.9848 8.63333 58.9848 10.02C58.9848 10.6093 58.7768 11.112 58.3608 11.528C57.9448 11.9093 57.4248 12.1 56.8008 12.1H51.4448C50.7514 12.1 50.4048 12.4467 50.4048 13.14V15.22C50.4048 15.9133 50.7514 16.26 51.4448 16.26H56.0208C56.7141 16.26 57.2514 16.4507 57.6328 16.832C58.0141 17.2133 58.2048 17.716 58.2048 18.34C58.2048 18.8947 57.9794 19.38 57.5288 19.796C57.1128 20.212 56.6101 20.42 56.0208 20.42H51.4448C50.7514 20.42 50.4048 20.7667 50.4048 21.46V23.748C50.4048 24.4413 50.7514 24.788 51.4448 24.788H57.3208C57.9794 24.788 58.4994 24.9787 58.8808 25.36C59.2968 25.7413 59.5048 26.2613 59.5048 26.92C59.5048 27.5093 59.2968 28.012 58.8808 28.428C58.4648 28.8093 57.9448 29 57.3208 29H49.1048ZM63.8707 29.52C63.2121 29.52 62.6227 29.2947 62.1027 28.844C61.5827 28.3587 61.3227 27.804 61.3227 27.18C61.3227 26.6947 61.4614 26.2613 61.7387 25.88L66.8347 19.484C67.0774 19.2067 67.1987 18.86 67.1987 18.444C67.1987 18.0627 67.0601 17.6813 66.7827 17.3L61.9467 11.372C61.7041 10.9907 61.5827 10.5573 61.5827 10.072C61.5827 9.448 61.8254 8.89333 62.3107 8.408C62.7961 7.92267 63.3681 7.68 64.0267 7.68C64.7201 7.68 65.2574 7.95733 65.6387 8.512L69.5907 14.024C69.8681 14.336 70.1107 14.492 70.3187 14.492C70.5961 14.492 70.8387 14.336 71.0467 14.024L74.9467 8.512C75.3281 7.95733 75.8654 7.68 76.5587 7.68C77.2174 7.68 77.7894 7.92267 78.2747 8.408C78.7601 8.89333 79.0027 9.448 79.0027 10.072C79.0027 10.5573 78.8814 10.9907 78.6387 11.372L73.8027 17.3C73.5254 17.6813 73.3867 18.0627 73.3867 18.444C73.3867 18.86 73.5081 19.2067 73.7507 19.484L78.8467 25.88C79.1241 26.2613 79.2627 26.6947 79.2627 27.18C79.2627 27.804 79.0027 28.3587 78.4827 28.844C77.9974 29.2947 77.4081 29.52 76.7147 29.52C76.0214 29.52 75.4841 29.2427 75.1027 28.688L71.0467 22.968C70.8041 22.656 70.5614 22.5 70.3187 22.5C70.0414 22.5 69.7987 22.656 69.5907 22.968L65.4827 28.688C65.1014 29.2427 64.5641 29.52 63.8707 29.52ZM91.9629 29.52C89.9176 29.52 88.0629 29.0347 86.3989 28.064C84.7696 27.0587 83.4696 25.7067 82.4989 24.008C81.5629 22.3093 81.0949 20.4373 81.0949 18.392C81.0949 16.2773 81.5629 14.4053 82.4989 12.776C83.4696 11.112 84.7696 9.812 86.3989 8.876C88.0283 7.90533 89.8829 7.42 91.9629 7.42C94.0429 7.42 95.8803 7.90533 97.4749 8.876C99.1043 9.812 100.37 11.112 101.271 12.776C102.207 14.4053 102.675 16.2773 102.675 18.392C102.675 20.472 102.207 22.3613 101.271 24.06C100.335 25.724 99.0523 27.0587 97.4229 28.064C95.8283 29.0347 94.0083 29.52 91.9629 29.52ZM91.9629 25.36C93.7309 25.36 95.1696 24.7013 96.2789 23.384C97.4229 22.0667 97.9949 20.4027 97.9949 18.392C97.9949 16.3813 97.4229 14.7347 96.2789 13.452C95.1696 12.1693 93.7309 11.528 91.9629 11.528C90.1603 11.528 88.6696 12.1693 87.4909 13.452C86.3469 14.7347 85.7749 16.3813 85.7749 18.392C85.7749 20.4027 86.3469 22.0667 87.4909 23.384C88.6696 24.7013 90.1603 25.36 91.9629 25.36ZM108.647 29.52C107.953 29.52 107.381 29.3293 106.931 28.948C106.515 28.532 106.307 27.9947 106.307 27.336V10.436C106.307 9.53467 106.584 8.85867 107.139 8.408C107.693 7.92267 108.317 7.68 109.011 7.68C109.496 7.68 109.964 7.80133 110.415 8.044C110.865 8.252 111.247 8.59867 111.559 9.084L119.047 20.368C119.185 20.6107 119.393 20.732 119.671 20.732C120.017 20.732 120.191 20.524 120.191 20.108L119.827 9.864C119.792 9.17067 120 8.63333 120.451 8.252C120.901 7.87067 121.473 7.68 122.167 7.68C122.86 7.68 123.415 7.87067 123.831 8.252C124.281 8.63333 124.507 9.17067 124.507 9.864V26.712C124.507 27.5787 124.229 28.2547 123.675 28.74C123.12 29.2253 122.496 29.468 121.803 29.468C121.352 29.468 120.901 29.3467 120.451 29.104C120 28.896 119.619 28.5493 119.307 28.064L111.871 16.416C111.732 16.1733 111.524 16.052 111.247 16.052C110.865 16.052 110.675 16.2773 110.675 16.728L110.987 27.336C111.021 27.9947 110.813 28.532 110.363 28.948C109.912 29.3293 109.34 29.52 108.647 29.52ZM129.989 29.52C129.434 29.52 128.897 29.312 128.377 28.896C127.892 28.48 127.649 27.9427 127.649 27.284C127.649 27.0067 127.701 26.712 127.805 26.4L134.357 9.292C134.6 8.668 134.998 8.2 135.553 7.888C136.108 7.576 136.68 7.42 137.269 7.42C137.893 7.42 138.482 7.576 139.037 7.888C139.626 8.2 140.042 8.668 140.285 9.292L147.305 26.296C147.374 26.4347 147.409 26.5733 147.409 26.712C147.409 26.8507 147.409 26.9893 147.409 27.128C147.409 27.856 147.166 28.428 146.681 28.844C146.196 29.26 145.658 29.468 145.069 29.468C144.653 29.468 144.237 29.3467 143.821 29.104C143.44 28.896 143.162 28.5493 142.989 28.064L141.481 24.008C141.446 23.8 141.308 23.696 141.065 23.696H134.045C133.802 23.696 133.646 23.8 133.577 24.008L132.121 28.116C131.878 28.5667 131.566 28.9133 131.185 29.156C130.804 29.3987 130.405 29.52 129.989 29.52ZM135.917 19.64H138.985C139.193 19.64 139.349 19.5707 139.453 19.432C139.592 19.2587 139.626 19.0507 139.557 18.808L138.205 15.116C137.997 14.5613 137.737 14.284 137.425 14.284C137.113 14.284 136.853 14.5787 136.645 15.168L135.345 18.86C135.276 19.068 135.293 19.2587 135.397 19.432C135.501 19.5707 135.674 19.64 135.917 19.64ZM151.265 29.52C150.607 29.52 150.017 29.2947 149.497 28.844C148.977 28.3587 148.717 27.804 148.717 27.18C148.717 26.6947 148.856 26.2613 149.133 25.88L154.229 19.484C154.472 19.2067 154.593 18.86 154.593 18.444C154.593 18.0627 154.455 17.6813 154.177 17.3L149.341 11.372C149.099 10.9907 148.977 10.5573 148.977 10.072C148.977 9.448 149.22 8.89333 149.705 8.408C150.191 7.92267 150.763 7.68 151.421 7.68C152.115 7.68 152.652 7.95733 153.033 8.512L156.985 14.024C157.263 14.336 157.505 14.492 157.713 14.492C157.991 14.492 158.233 14.336 158.441 14.024L162.341 8.512C162.723 7.95733 163.26 7.68 163.953 7.68C164.612 7.68 165.184 7.92267 165.669 8.408C166.155 8.89333 166.397 9.448 166.397 10.072C166.397 10.5573 166.276 10.9907 166.033 11.372L161.197 17.3C160.92 17.6813 160.781 18.0627 160.781 18.444C160.781 18.86 160.903 19.2067 161.145 19.484L166.241 25.88C166.519 26.2613 166.657 26.6947 166.657 27.18C166.657 27.804 166.397 28.3587 165.877 28.844C165.392 29.2947 164.803 29.52 164.109 29.52C163.416 29.52 162.879 29.2427 162.497 28.688L158.441 22.968C158.199 22.656 157.956 22.5 157.713 22.5C157.436 22.5 157.193 22.656 156.985 22.968L152.877 28.688C152.496 29.2427 151.959 29.52 151.265 29.52Z" fill="url(#paint4_linear_105_39)"/>
<defs>
<linearGradient id="paint0_linear_105_39" x1="17.9008" y1="5.00005" x2="17.9008" y2="31.9355" gradientUnits="userSpaceOnUse">
<stop stop-color="#146D17"/>
<stop offset="1" stop-color="#27D32C"/>
</linearGradient>
<linearGradient id="paint1_linear_105_39" x1="10.1472" y1="16.2257" x2="10.1472" y2="20.7241" gradientUnits="userSpaceOnUse">
<stop stop-color="#146D17"/>
<stop offset="1" stop-color="#27D32C"/>
</linearGradient>
<linearGradient id="paint2_linear_105_39" x1="13.177" y1="27.3677" x2="13.177" y2="31.9236" gradientUnits="userSpaceOnUse">
<stop stop-color="#146D17"/>
<stop offset="1" stop-color="#27D32C"/>
</linearGradient>
<linearGradient id="paint3_linear_105_39" x1="24.4065" y1="27.5208" x2="24.4065" y2="32" gradientUnits="userSpaceOnUse">
<stop stop-color="#146D17"/>
<stop offset="1" stop-color="#27D32C"/>
</linearGradient>
<linearGradient id="paint4_linear_105_39" x1="43.3848" y1="18.5" x2="175.385" y2="18.5" gradientUnits="userSpaceOnUse">
<stop stop-color="#27D32C"/>
<stop offset="1" stop-color="#146D17"/>
</linearGradient>
</defs>
</svg>
