<svg width="26" height="30" viewBox="0 0 26 30" fill="none" xmlns="http://www.w3.org/2000/svg">
<path fill-rule="evenodd" clip-rule="evenodd" d="M7.83327 0.166051C7.83327 0.251455 8.04663 0.725508 8.30747 1.21954C8.89292 2.32873 8.88623 2.37554 8.06099 2.93211C6.12033 4.2409 4.66747 6.5968 4.62933 8.49651C4.6155 9.1862 3.85454 9.12868 12.9915 9.12868C22.0648 9.12868 21.3586 9.17876 21.3576 8.53549C21.3548 6.69877 19.9318 4.32494 18.0539 3.02473C17.0911 2.35799 17.0915 2.36042 17.738 1.1327C18.1319 0.38488 18.2358 0.125781 18.1687 0.059828C18.0488 -0.0579444 17.8948 0.139305 17.4201 1.01857C16.7907 2.18452 16.7306 2.20777 15.3935 1.80461C13.9984 1.38405 12.0017 1.38405 10.6066 1.80461C9.27967 2.20473 9.20741 2.17829 8.61209 1.07457C8.0581 0.0475949 7.83327 -0.214696 7.83327 0.166051ZM9.57501 4.91843C10.1794 5.42691 9.53223 6.34318 8.82651 5.97823C8.58207 5.8518 8.51711 5.72544 8.51711 5.37585C8.51711 4.79823 9.12155 4.53685 9.57501 4.91843ZM17.1736 4.83288C17.8135 5.1637 17.425 6.20557 16.7197 6.05064C16.1899 5.93432 16.0153 5.26316 16.4251 4.91843C16.6915 4.69429 16.8669 4.67423 17.1736 4.83288ZM1.50494 9.6133C1.02777 9.74604 0.62666 10.0794 0.389139 10.541L0.197056 10.9143V15.2073C0.197056 20.079 0.181632 19.9434 0.801723 20.5149C1.74823 21.3874 3.24729 21.047 3.70721 19.8552C3.93568 19.2632 3.91555 11.1429 3.68441 10.6483C3.29029 9.80508 2.3763 9.37099 1.50494 9.6133ZM23.4285 9.6484C22.8523 9.85181 22.5092 10.1695 22.3077 10.6863C22.2042 10.9516 22.1919 11.551 22.2105 15.4028L22.2319 19.8154L22.4423 20.1333C23.105 21.1345 24.3401 21.3061 25.197 20.5162C25.8187 19.9432 25.8031 20.0805 25.8031 15.2073V10.9143L25.6235 10.5529C25.2125 9.7256 24.2885 9.34485 23.4285 9.6484ZM4.82635 10.0772L4.63768 10.2658L4.65881 16.3647L4.68001 22.4636L4.90795 22.8787C5.33573 23.658 5.89937 23.9441 7.00803 23.9448C7.54043 23.9451 7.69832 23.9726 7.84383 24.0903L8.02322 24.2355L8.06122 26.4648C8.10779 29.1966 8.14472 29.3077 9.17945 29.8255C9.81473 30.1433 10.4411 30.0273 11.0698 29.4753C11.6468 28.9687 11.6655 28.8793 11.7082 26.4268C11.7549 23.7436 11.649 23.9452 13.0119 23.9452C13.8734 23.9452 13.9281 23.9546 14.1052 24.1317L14.2918 24.3182L14.2925 26.3922C14.2932 28.4152 14.2977 28.4755 14.4731 28.8461C15.0792 30.1258 16.6398 30.3734 17.5183 29.3292C17.8833 28.8955 17.8961 28.8076 17.9375 26.4648L17.9769 24.2355L18.1563 24.0903C18.3018 23.9726 18.4597 23.9451 18.9921 23.9448C20.1007 23.9441 20.6644 23.658 21.0922 22.8787L21.3201 22.4636L21.3413 16.3647L21.3624 10.2658L21.1738 10.0772L20.9851 9.8885H13.0001H5.01501L4.82635 10.0772Z" fill="#A2BB4E"/>
</svg>
