<svg width="28" height="28" viewBox="0 0 28 28" fill="none" xmlns="http://www.w3.org/2000/svg">
<g clip-path="url(#clip0_1181_24737)">
<path d="M14 20.7461C17.7279 20.7461 20.75 17.724 20.75 13.9961C20.75 10.2682 17.7279 7.24609 14 7.24609C10.2721 7.24609 7.25 10.2682 7.25 13.9961C7.25 17.724 10.2721 20.7461 14 20.7461Z" fill="white"/>
<path d="M14.0001 7.25003H25.6895C24.505 5.19768 22.801 3.49337 20.7489 2.30846C18.6968 1.12356 16.3688 0.499835 13.9992 0.5C11.6295 0.500165 9.30171 1.12422 7.24975 2.30941C5.1978 3.4946 3.49404 5.19914 2.30981 7.25166L8.15453 17.375L8.15976 17.3737C7.5652 16.3484 7.25143 15.1845 7.2501 13.9993C7.24877 12.8141 7.55991 11.6495 8.15217 10.6228C8.74443 9.59621 9.59686 8.74387 10.6235 8.15173C11.6502 7.55958 12.8149 7.24856 14.0001 7.25003Z" fill="url(#paint0_linear_1181_24737)"/>
<path d="M14 19.3438C16.9513 19.3438 19.3438 16.9513 19.3438 14C19.3438 11.0487 16.9513 8.65625 14 8.65625C11.0487 8.65625 8.65625 11.0487 8.65625 14C8.65625 16.9513 11.0487 19.3438 14 19.3438Z" fill="#1A73E8"/>
<path d="M19.8452 17.3749L14.0005 27.4983C16.3701 27.4986 18.6981 26.875 20.7503 25.6903C22.8025 24.5055 24.5066 22.8013 25.6912 20.7491C26.8759 18.6968 27.4994 16.3689 27.4989 13.9992C27.4985 11.6296 26.8742 9.30183 25.6888 7.25H13.9995L13.998 7.25523C15.1833 7.25294 16.3481 7.56316 17.3752 8.1546C18.4023 8.74604 19.2553 9.59781 19.8483 10.624C20.4412 11.6503 20.7532 12.8147 20.7526 13.9999C20.7521 15.1851 20.4391 16.3492 19.8452 17.3749Z" fill="url(#paint1_linear_1181_24737)"/>
<path d="M8.15487 17.3773L2.31016 7.25391C1.12504 9.30591 0.501065 11.6338 0.500977 14.0034C0.500888 16.373 1.12469 18.7009 2.30965 20.753C3.49462 22.8051 5.19898 24.5091 7.25136 25.6935C9.30374 26.878 11.6318 27.5012 14.0014 27.5005L19.8461 17.3772L19.8424 17.3733C19.2517 18.4009 18.4006 19.2546 17.3749 19.8483C16.3491 20.4421 15.185 20.7549 13.9998 20.7553C12.8146 20.7557 11.6502 20.4437 10.624 19.8506C9.59788 19.2575 8.7462 18.4044 8.15487 17.3773Z" fill="url(#paint2_linear_1181_24737)"/>
</g>
<defs>
<linearGradient id="paint0_linear_1181_24737" x1="2.30981" y1="8.93753" x2="25.6895" y2="8.93753" gradientUnits="userSpaceOnUse">
<stop stop-color="#D93025"/>
<stop offset="1" stop-color="#EA4335"/>
</linearGradient>
<linearGradient id="paint1_linear_1181_24737" x1="12.1561" y1="27.3177" x2="23.846" y2="7.07034" gradientUnits="userSpaceOnUse">
<stop stop-color="#FCC934"/>
<stop offset="1" stop-color="#FBBC04"/>
</linearGradient>
<linearGradient id="paint2_linear_1181_24737" x1="15.4615" y1="26.6576" x2="3.77159" y2="6.41016" gradientUnits="userSpaceOnUse">
<stop stop-color="#1E8E3E"/>
<stop offset="1" stop-color="#34A853"/>
</linearGradient>
<clipPath id="clip0_1181_24737">
<rect width="27" height="27" fill="white" transform="translate(0.5 0.5)"/>
</clipPath>
</defs>
</svg>
