<svg width="26" height="30" viewBox="0 0 26 30" fill="none" xmlns="http://www.w3.org/2000/svg">
<path d="M25.6583 9.76108L24.7427 7.27456L25.3794 5.84715C25.4194 5.7571 25.4313 5.65707 25.4135 5.56016C25.3957 5.46325 25.349 5.37399 25.2796 5.30407L23.5484 3.55414C23.1767 3.17705 22.7056 2.91327 22.1899 2.79355C21.6742 2.67383 21.135 2.70308 20.6353 2.87789L20.1505 3.04644L17.5058 0.181218L13.0197 0.15625H12.9905L8.47527 0.191623L5.8327 3.07973L5.36245 2.91327C4.85946 2.73638 4.31645 2.70664 3.79715 2.82753C3.27785 2.94841 2.8038 3.21492 2.43064 3.59576L0.668232 5.37898C0.61292 5.43471 0.575769 5.50588 0.561656 5.58313C0.547544 5.66037 0.557134 5.74008 0.589165 5.81178L1.25293 7.29328L0.341553 9.77772L0.93041 12.0187L3.61668 22.2311C3.92615 23.4075 4.63811 24.4383 5.62878 25.1442C5.62878 25.1442 8.88935 27.4434 12.1062 29.5325C12.3606 29.7356 12.6765 29.8463 13.002 29.8463C13.3275 29.8463 13.6434 29.7356 13.8978 29.5325C17.512 27.1646 20.371 25.1359 20.371 25.1359C21.3609 24.4296 22.0721 23.3989 22.381 22.2228L25.0527 12.0062L25.6583 9.76108Z" fill="url(#paint0_linear_1181_24745)"/>
<path d="M13.7407 18.5586C13.5695 18.482 13.3928 18.418 13.2122 18.3672H12.8938C12.7132 18.418 12.5366 18.482 12.3653 18.5586L11.5642 18.8915C11.3104 18.9977 10.9026 19.187 10.6591 19.3077L9.18592 20.0755C9.13257 20.0928 9.08562 20.1257 9.05112 20.1699C9.01662 20.2141 8.99615 20.2677 8.99235 20.3236C8.98854 20.3796 9.00158 20.4354 9.02977 20.4839C9.05796 20.5324 9.10003 20.5713 9.15054 20.5957L10.4302 21.4987C10.6549 21.6569 11.0087 21.9357 11.2167 22.123L11.5767 22.433C11.7848 22.612 12.124 22.9095 12.33 23.0926L12.6712 23.3943C12.7766 23.4822 12.9095 23.5303 13.0468 23.5303C13.184 23.5303 13.3169 23.4822 13.4224 23.3943L13.7803 23.0822L14.5335 22.4247L14.8955 22.1084C15.1036 21.9274 15.4553 21.6486 15.68 21.4842L16.9597 20.5686C17.0103 20.5443 17.0524 20.5053 17.0805 20.4567C17.1085 20.408 17.1213 20.3521 17.117 20.2961C17.1127 20.2401 17.0917 20.1867 17.0565 20.1429C17.0214 20.0991 16.9739 20.0669 16.9201 20.0505L15.449 19.3035C15.2035 19.1787 14.7957 18.9914 14.5397 18.8874L13.7407 18.5586Z" fill="white"/>
<path d="M22.811 10.3162L22.8526 10.183C22.8551 10.0048 22.8439 9.82676 22.8193 9.6503C22.6954 9.33512 22.5363 9.03496 22.3449 8.75557L21.5126 7.53416C21.3586 7.30528 21.0964 6.94322 20.9196 6.72891L19.8043 5.33271C19.7026 5.19663 19.592 5.06735 19.4734 4.94569H19.4506C19.4506 4.94569 19.2258 4.98522 18.9553 5.03724L17.2512 5.366L16.5042 5.50957C16.2562 5.52123 16.0083 5.4852 15.7738 5.40346L14.4276 4.96857C14.1654 4.88326 13.7326 4.7605 13.4642 4.70224C13.1813 4.67217 12.896 4.67217 12.6132 4.70224C12.3447 4.76466 11.9119 4.88535 11.6498 4.97066L10.3035 5.40762C10.0691 5.48936 9.82114 5.52539 9.57315 5.51374L8.82615 5.37224L7.11992 5.04556C6.84943 4.99355 6.62678 4.95193 6.6247 4.95401H6.60181C6.48322 5.07567 6.3727 5.20496 6.27097 5.34103L5.15776 6.73723C4.98714 6.9453 4.71872 7.31568 4.56474 7.54249L3.73243 8.7639C3.58869 8.97453 3.45738 9.19338 3.33917 9.41934C3.26787 9.6713 3.23009 9.93155 3.22681 10.1934L3.26842 10.3266C3.28845 10.4121 3.31418 10.4962 3.34541 10.5783C3.51812 10.7864 3.81358 11.1318 4.00293 11.3336L6.91601 14.4298C7.01272 14.5427 7.07743 14.6795 7.10341 14.8258C7.12939 14.9722 7.11569 15.1229 7.06374 15.2621L6.58725 16.392C6.4789 16.6913 6.47087 17.0178 6.56436 17.3221L6.66007 17.5843C6.81647 18.0101 7.08454 18.386 7.4362 18.6725L7.89397 19.045C8.01289 19.1308 8.15165 19.1849 8.29723 19.2024C8.44281 19.2199 8.59044 19.2001 8.72628 19.1448L10.3534 18.3687C10.6521 18.2192 10.9316 18.034 11.1857 17.8173L12.4883 16.6417C12.5402 16.5948 12.5821 16.5381 12.6117 16.4747C12.6412 16.4114 12.6577 16.3427 12.6603 16.2729C12.6628 16.203 12.6513 16.1334 12.6264 16.068C12.6015 16.0027 12.5637 15.9431 12.5154 15.8926L9.57523 13.9117C9.46391 13.8327 9.38462 13.7164 9.35178 13.5839C9.31894 13.4514 9.33474 13.3115 9.39629 13.1897L10.5365 11.0465C10.6014 10.9153 10.6397 10.7726 10.6494 10.6266C10.659 10.4805 10.6398 10.334 10.5927 10.1955C10.4511 9.93111 10.2225 9.72382 9.94561 9.60869L6.37085 8.25827C6.11283 8.16047 6.1274 8.05019 6.39998 8.03355L8.49947 7.82547C8.8287 7.80454 9.15919 7.83401 9.47951 7.91286L11.3064 8.42265C11.4361 8.46174 11.5473 8.54655 11.6192 8.66134C11.6911 8.77613 11.719 8.91311 11.6976 9.04688L10.9797 12.967C10.9317 13.1842 10.9198 13.4077 10.9444 13.6287C10.9735 13.7224 11.219 13.8368 11.4875 13.9034L12.6007 14.1406C12.9239 14.2 13.2553 14.2 13.5786 14.1406L14.5795 13.9138C14.8479 13.8535 15.0913 13.7265 15.1226 13.6329C15.1465 13.4118 15.1338 13.1882 15.0851 12.9712L14.3631 9.05104C14.3417 8.91727 14.3696 8.78029 14.4415 8.6655C14.5134 8.55071 14.6246 8.46591 14.7543 8.42681L16.5812 7.91494C16.9015 7.83605 17.232 7.80658 17.5612 7.82755L19.6607 8.02314C19.9354 8.04811 19.9479 8.15007 19.6919 8.24787L16.1192 9.60245C15.8423 9.71757 15.6137 9.92487 15.4721 10.1892C15.3774 10.4691 15.3976 10.7752 15.5283 11.0403L16.6706 13.1834C16.7322 13.3053 16.748 13.4452 16.7151 13.5777C16.6823 13.7102 16.603 13.8265 16.4917 13.9055L13.5537 15.8905C13.5053 15.941 13.4675 16.0006 13.4426 16.066C13.4178 16.1313 13.4062 16.2009 13.4088 16.2708C13.4113 16.3406 13.4278 16.4093 13.4573 16.4726C13.4869 16.536 13.5288 16.5928 13.5807 16.6396L14.8853 17.8152C15.1396 18.0312 15.4191 18.2157 15.7177 18.3646L17.3448 19.1386C17.4808 19.1935 17.6286 19.213 17.7741 19.1951C17.9197 19.1773 18.0584 19.1228 18.1771 19.0366L18.6349 18.6621C18.9869 18.3751 19.255 17.9984 19.411 17.5718L19.5067 17.3096C19.6002 17.0053 19.5922 16.6788 19.4838 16.3795L19.0053 15.2497C18.9533 15.1104 18.9396 14.9597 18.9656 14.8133C18.9916 14.667 19.0563 14.5302 19.153 14.4173L22.0661 11.317C22.2554 11.1089 22.5488 10.776 22.7215 10.5617C22.7567 10.4819 22.7866 10.3999 22.811 10.3162Z" fill="white"/>
<defs>
<linearGradient id="paint0_linear_1181_24745" x1="0.349876" y1="15.0025" x2="25.6499" y2="15.0025" gradientUnits="userSpaceOnUse">
<stop stop-color="#F1562B"/>
<stop offset="0.3" stop-color="#F1542B"/>
<stop offset="0.41" stop-color="#F04D2A"/>
<stop offset="0.49" stop-color="#EF4229"/>
<stop offset="0.5" stop-color="#EF4029"/>
<stop offset="0.56" stop-color="#E83E28"/>
<stop offset="0.67" stop-color="#E13C26"/>
<stop offset="1" stop-color="#DF3C26"/>
</linearGradient>
</defs>
</svg>
