<svg width="24" height="28" viewBox="0 0 24 28" fill="none" xmlns="http://www.w3.org/2000/svg">
<path fill-rule="evenodd" clip-rule="evenodd" d="M16.4945 0.222707C13.756 1.16756 12.0708 3.36612 11.9773 6.11618C11.955 6.76931 11.955 6.76931 12.5109 6.73623C15.0676 6.58421 17.4751 3.76513 17.5045 0.888892C17.5152 -0.154065 17.5396 -0.137946 16.4945 0.222707ZM16.9074 6.35927C16.574 6.40365 15.9695 6.53928 15.5641 6.66064C12.3294 7.62893 12.6423 7.60882 10.2875 7.00072C1.73936 4.79354 -2.49259 12.9237 2.23545 22.4696C4.71241 27.4705 6.76831 28.7892 10.1283 27.5323C12.1745 26.7669 12.9151 26.7677 15.2682 27.5378C17.7299 28.3435 18.7581 28.1444 20.3436 26.5548C22.252 24.6416 24.3257 20.6495 23.5731 20.3378C19.6957 18.7317 18.9486 13.2299 22.1687 9.99489C23.1713 8.98779 23.1341 9.11341 22.6079 8.51189C21.2061 6.90947 19.0078 6.07931 16.9074 6.35927Z" fill="white"/>
</svg>
