<svg width="16" height="16" viewBox="0 0 16 16" fill="none" xmlns="http://www.w3.org/2000/svg">
<path d="M8 14.1362C6.28234 14.1362 4.83034 13.8646 3.644 13.3214C2.45767 12.7782 1.8645 12.1157 1.8645 11.3341V4.6674C1.8645 3.89685 2.46389 3.23718 3.66267 2.6884C4.86145 2.13962 6.30722 1.86523 8 1.86523C9.69011 1.86523 11.1352 2.13962 12.3353 2.6884C13.5354 3.23718 14.1355 3.89685 14.1355 4.6674V11.3341C14.1355 12.1157 13.5417 12.7782 12.354 13.3214C11.1663 13.8646 9.715 14.1362 8 14.1362ZM8 6.0134C8.98622 6.0134 9.97667 5.8724 10.9713 5.5904C11.966 5.3084 12.5284 5.00629 12.6587 4.68407C12.5284 4.36185 11.9674 4.05762 10.9757 3.7714C9.98389 3.48518 8.992 3.34207 8 3.34207C6.99689 3.34207 6.01056 3.48307 5.041 3.76507C4.07145 4.04707 3.50489 4.3534 3.34134 4.68407C3.50222 5.0174 4.06678 5.32229 5.035 5.59873C6.00322 5.87518 6.99156 6.0134 8 6.0134ZM8 9.32207C8.45867 9.32207 8.90333 9.29918 9.334 9.2534C9.76467 9.20762 10.1766 9.1424 10.5697 9.05773C10.9629 8.97307 11.3358 8.86835 11.6883 8.74357C12.041 8.61868 12.3644 8.47579 12.6587 8.3149V6.49023C12.3644 6.64579 12.0423 6.78401 11.6923 6.9049C11.3423 7.02579 10.9714 7.12723 10.5797 7.20923C10.1879 7.29123 9.77667 7.35379 9.346 7.3969C8.91534 7.44001 8.46667 7.46157 8 7.46157C7.53867 7.46157 7.08778 7.44001 6.64734 7.3969C6.20689 7.35379 5.79011 7.29057 5.397 7.20723C5.00378 7.1239 4.63367 7.02179 4.28667 6.9009C3.93956 6.78001 3.62445 6.64312 3.34134 6.49023V8.3149C3.62178 8.47312 3.93556 8.61535 4.28267 8.74157C4.62978 8.86768 5.00122 8.97307 5.397 9.05773C5.79267 9.1424 6.21078 9.20762 6.65133 9.2534C7.09178 9.29918 7.54134 9.32207 8 9.32207ZM8 12.6594C8.50311 12.6594 9.01589 12.6212 9.53833 12.5447C10.0609 12.4683 10.5431 12.3668 10.9848 12.2404C11.4266 12.114 11.7995 11.9702 12.1035 11.8091C12.4075 11.648 12.5926 11.4841 12.6587 11.3174V9.80357C12.3671 9.96179 12.0463 10.1033 11.6963 10.2282C11.3463 10.3531 10.9741 10.4572 10.5797 10.5406C10.1852 10.6239 9.77267 10.6878 9.342 10.7322C8.91134 10.7767 8.464 10.7989 8 10.7989C7.53867 10.7989 7.08778 10.7767 6.64734 10.7322C6.20689 10.6878 5.78945 10.6226 5.395 10.5366C5.00056 10.4506 4.62978 10.3458 4.28267 10.2222C3.93556 10.0987 3.62178 9.95779 3.34134 9.79957V11.3341C3.40489 11.4981 3.5865 11.6578 3.88617 11.8134C4.18595 11.969 4.55672 12.11 4.9985 12.2364C5.44028 12.3628 5.92522 12.465 6.45334 12.5427C6.98134 12.6205 7.49689 12.6594 8 12.6594Z" fill="#E3E3E3"/>
</svg>
