<svg width="54" height="23" viewBox="0 0 54 23" fill="none" xmlns="http://www.w3.org/2000/svg">
<path d="M9.99923 3.33635C9.37126 4.07945 8.3665 4.66556 7.36174 4.58183C7.23615 3.57707 7.72806 2.50951 8.3037 1.85014C8.93168 1.08611 10.0306 0.541865 10.9203 0.5C11.0249 1.54662 10.6167 2.57231 9.99923 3.33635ZM10.9098 4.78068C9.45499 4.69696 8.20951 5.60752 7.51874 5.60752C6.8175 5.60752 5.76041 4.82255 4.60913 4.84348C3.11246 4.86441 1.72045 5.71218 0.956414 7.06232C-0.61352 9.76261 0.548231 13.7607 2.06583 15.9586C2.80894 17.0471 3.69856 18.2402 4.87078 18.1984C5.9802 18.1565 6.41978 17.4762 7.75946 17.4762C9.1096 17.4762 9.49685 18.1984 10.6691 18.1774C11.8832 18.1565 12.6472 17.089 13.3903 16.0005C14.2381 14.7655 14.5834 13.5618 14.6044 13.499C14.5834 13.4781 12.2599 12.5885 12.239 9.90913C12.2181 7.66936 14.0706 6.60181 14.1543 6.53901C13.1077 4.99001 11.475 4.82255 10.9098 4.78068ZM19.3142 1.74548V18.0623H21.847V12.4838H25.3532C28.5559 12.4838 30.8061 10.2859 30.8061 7.10419C30.8061 3.92245 28.5977 1.74548 25.4369 1.74548H19.3142ZM21.847 3.88059H24.7671C26.965 3.88059 28.2209 5.05281 28.2209 7.11465C28.2209 9.1765 26.965 10.3592 24.7566 10.3592H21.847V3.88059ZM35.4322 18.1879C37.023 18.1879 38.4988 17.382 39.1686 16.1051H39.2209V18.0623H41.5654V9.94053C41.5654 7.58563 39.6814 6.06803 36.7823 6.06803C34.0925 6.06803 32.1039 7.60656 32.0306 9.72074H34.3123C34.5007 8.71598 35.4322 8.05661 36.709 8.05661C38.258 8.05661 39.1267 8.77878 39.1267 10.108V11.0081L35.9659 11.1965C33.0249 11.3744 31.4341 12.578 31.4341 14.6713C31.4341 16.7854 33.0773 18.1879 35.4322 18.1879ZM36.1125 16.2517C34.7623 16.2517 33.9041 15.6028 33.9041 14.6085C33.9041 13.5828 34.7309 12.9862 36.3113 12.892L39.1267 12.7141V13.6351C39.1267 15.1632 37.8289 16.2517 36.1125 16.2517ZM44.6948 22.5C47.1648 22.5 48.3265 21.558 49.3418 18.7008L53.7899 6.22502H51.2152L48.2324 15.8644H48.18L45.1971 6.22502H42.5492L46.8403 18.1042L46.6101 18.8264C46.2228 20.0509 45.5949 20.5219 44.475 20.5219C44.2761 20.5219 43.8889 20.5009 43.7319 20.48V22.4372C43.8784 22.4791 44.5064 22.5 44.6948 22.5Z" fill="black"/>
</svg>
