<svg width="60" height="20" viewBox="0 0 60 20" fill="none" xmlns="http://www.w3.org/2000/svg">
<g clip-path="url(#clip0_1443_18744)">
<path d="M38.8467 0.529297C34.6958 0.529297 30.9864 2.68078 30.9864 6.65581C30.9864 11.2144 37.5652 11.5293 37.5652 13.8194C37.5652 14.7837 36.4601 15.6469 34.5727 15.6469C31.8942 15.6469 29.8922 14.4407 29.8922 14.4407L29.0356 18.452C29.0356 18.452 31.3418 19.4708 34.4037 19.4708C38.9419 19.4708 42.513 17.2137 42.513 13.1707C42.513 8.35367 35.9068 8.04816 35.9068 5.92255C35.9068 5.16718 36.8139 4.33952 38.6959 4.33952C40.8194 4.33952 42.5518 5.2167 42.5518 5.2167L43.3902 1.34251C43.3902 1.34251 41.5051 0.529297 38.8467 0.529297ZM0.870041 0.821689L0.769531 1.40647C0.769531 1.40647 2.51582 1.72607 4.08863 2.3636C6.11376 3.09465 6.25802 3.52023 6.59909 4.84207L10.3157 19.1693H15.2977L22.973 0.821689H18.0024L13.0705 13.2963L11.0581 2.72223C10.8735 1.51204 9.93863 0.821689 8.79431 0.821689H0.870041ZM24.9718 0.821689L21.0725 19.1693H25.8124L29.698 0.821689H24.9718ZM51.4081 0.821689C50.2651 0.821689 49.6595 1.43361 49.2151 2.50294L42.2708 19.1693H47.2415L48.2032 16.3915H54.2589L54.8437 19.1693H59.2296L55.4033 0.821689H51.4081ZM52.0545 5.77864L53.5279 12.6635H49.5806L52.0545 5.77864Z" fill="#1434CB"/>
</g>
<defs>
<clipPath id="clip0_1443_18744">
<rect width="58.5185" height="19" fill="white" transform="translate(0.740234 0.5)"/>
</clipPath>
</defs>
</svg>
