<svg width="42" height="26" viewBox="0 0 42 26" fill="none" xmlns="http://www.w3.org/2000/svg">
<g clip-path="url(#clip0_1443_18738)">
<path d="M15.5312 3.17383H26.4687V22.8266H15.5312V3.17383Z" fill="#FF5F00"/>
<path d="M16.2248 13C16.2248 9.00694 18.0998 5.46528 20.9818 3.17361C18.8637 1.50695 16.1901 0.5 13.2734 0.5C6.36372 0.5 0.773438 6.09027 0.773438 13C0.773438 19.9097 6.36372 25.5 13.2734 25.5C16.1901 25.5 18.8637 24.493 20.9818 22.8264C18.0998 20.5694 16.2248 16.993 16.2248 13Z" fill="#EB001B"/>
<path d="M41.224 13C41.224 19.9097 35.6337 25.5 28.724 25.5C25.8073 25.5 23.1337 24.493 21.0156 22.8264C23.9323 20.5347 25.7726 16.993 25.7726 13C25.7726 9.00694 23.8976 5.46528 21.0156 3.17361C23.1337 1.50695 25.8073 0.5 28.724 0.5C35.6337 0.5 41.224 6.125 41.224 13Z" fill="#F79E1B"/>
</g>
<defs>
<clipPath id="clip0_1443_18738">
<rect width="40.4514" height="25" fill="white" transform="translate(0.773438 0.5)"/>
</clipPath>
</defs>
</svg>
