<svg width="62" height="16" viewBox="0 0 62 16" fill="none" xmlns="http://www.w3.org/2000/svg">
<g clip-path="url(#clip0_1443_18747)">
<path d="M8.18355 0.000198364H3.51348C3.19385 0.000198364 2.92209 0.232434 2.87222 0.548018L0.98342 12.5234C0.945853 12.7596 1.1289 12.9727 1.36855 12.9727H3.59812C3.91769 12.9727 4.18945 12.7405 4.23932 12.4244L4.74872 9.19445C4.79792 8.87821 5.07035 8.64602 5.38925 8.64602H6.86766C9.94397 8.64602 11.7194 7.15737 12.1831 4.2074C12.392 2.91677 12.192 1.90275 11.5876 1.19258C10.9239 0.412665 9.74661 0.000198364 8.18355 0.000198364ZM8.72235 4.37404C8.46695 6.0498 7.18657 6.0498 5.94853 6.0498H5.24383L5.7382 2.92024C5.7676 2.73106 5.93144 2.59176 6.12267 2.59176H6.44564C7.28896 2.59176 8.08455 2.59176 8.4956 3.07244C8.74078 3.35929 8.8159 3.78538 8.72235 4.37404Z" fill="#283B82"/>
<path d="M22.1439 4.32154H19.9076C19.7171 4.32154 19.5525 4.46086 19.523 4.65002L19.4242 5.27552L19.2677 5.04878C18.7836 4.34609 17.7039 4.11124 16.6264 4.11124C14.1551 4.11124 12.0444 5.98295 11.6333 8.60856C11.4196 9.91828 11.7235 11.1707 12.4664 12.044C13.1479 12.847 14.123 13.1816 15.2832 13.1816C17.2745 13.1816 18.3787 11.9014 18.3787 11.9014L18.2789 12.5227C18.2413 12.7604 18.4244 12.9734 18.6628 12.9734H20.6771C20.9974 12.9734 21.2678 12.7412 21.3184 12.4251L22.527 4.77086C22.5653 4.53526 22.383 4.32154 22.1439 4.32154ZM19.0267 8.67413C18.8109 9.95172 17.7968 10.8095 16.5036 10.8095C15.8541 10.8095 15.3351 10.6012 15.0018 10.2065C14.6714 9.81449 14.5457 9.2566 14.6509 8.63516C14.8523 7.36847 15.8835 6.48284 17.1569 6.48284C17.7921 6.48284 18.3083 6.69382 18.6484 7.09187C18.9892 7.49408 19.1242 8.05541 19.0267 8.67413Z" fill="#283B82"/>
<path d="M34.0543 4.3209H31.807C31.5926 4.3209 31.3911 4.42743 31.2696 4.60569L28.17 9.1713L26.8562 4.7839C26.7736 4.50935 26.5203 4.3209 26.2335 4.3209H24.0251C23.7567 4.3209 23.5703 4.58309 23.6557 4.83576L26.131 12.1001L23.8038 15.3854C23.6208 15.6441 23.8051 16 24.1214 16H26.366C26.579 16 26.7785 15.8961 26.8993 15.7213L34.3738 4.9321C34.5528 4.67392 34.3691 4.3209 34.0543 4.3209Z" fill="#283B82"/>
<path d="M41.4941 0.000198364H36.8233C36.5045 0.000198364 36.2326 0.232434 36.1827 0.548018L34.2939 12.5234C34.2565 12.7596 34.4394 12.9727 34.6778 12.9727H37.0746C37.2972 12.9727 37.4878 12.8102 37.5226 12.5889L38.0586 9.19445C38.1077 8.87821 38.3803 8.64602 38.6991 8.64602H40.1769C43.2538 8.64602 45.0286 7.15737 45.493 4.2074C45.7027 2.91677 45.5012 1.90275 44.8968 1.19258C44.2338 0.412665 43.0572 0.000198364 41.4941 0.000198364ZM42.0329 4.37404C41.7782 6.0498 40.4979 6.0498 39.2591 6.0498H38.5551L39.0502 2.92024C39.0796 2.73106 39.242 2.59176 39.4339 2.59176H39.7569C40.5996 2.59176 41.3958 2.59176 41.8068 3.07244C42.052 3.35929 42.1264 3.78538 42.0329 4.37404Z" fill="#469BDB"/>
<path d="M55.4536 4.32154H53.2186C53.0267 4.32154 52.8634 4.46086 52.8348 4.65002L52.7357 5.27552L52.5787 5.04878C52.0946 4.34609 51.0156 4.11124 49.9381 4.11124C47.4667 4.11124 45.3568 5.98295 44.9456 8.60856C44.7326 9.91828 45.0351 11.1707 45.7781 12.044C46.461 12.847 47.4346 13.1816 48.5948 13.1816C50.5861 13.1816 51.6902 11.9014 51.6902 11.9014L51.5905 12.5227C51.553 12.7604 51.736 12.9734 51.9758 12.9734H53.9895C54.3084 12.9734 54.5802 12.7412 54.6301 12.4251L55.8394 4.77086C55.8762 4.53526 55.6932 4.32154 55.4536 4.32154ZM52.3362 8.67413C52.1218 9.95172 51.1064 10.8095 49.8131 10.8095C49.165 10.8095 48.6447 10.6012 48.3114 10.2065C47.981 9.81449 47.8567 9.2566 47.9605 8.63516C48.1633 7.36847 49.1931 6.48284 50.4667 6.48284C51.1017 6.48284 51.6179 6.69382 51.958 7.09187C52.3 7.49408 52.4353 8.05541 52.3362 8.67413Z" fill="#469BDB"/>
<path d="M58.0897 0.32876L56.1729 12.5234C56.1354 12.7596 56.3183 12.9727 56.5567 12.9727H58.4837C58.8039 12.9727 59.0758 12.7405 59.1249 12.4244L61.015 0.449721C61.0526 0.213355 60.8697 -0.000357628 60.6313 -0.000357628H58.4734C58.2829 0.000211716 58.1191 0.139695 58.0897 0.32876Z" fill="#469BDB"/>
</g>
<defs>
<clipPath id="clip0_1443_18747">
<rect width="60.0421" height="16" fill="white" transform="translate(0.978516)"/>
</clipPath>
</defs>
</svg>
