<svg width="54" height="16" viewBox="0 0 54 16" fill="none" xmlns="http://www.w3.org/2000/svg">
<path fill-rule="evenodd" clip-rule="evenodd" d="M5.38832 0.0285623C4.03744 0.135105 3.02777 0.47976 2.15362 1.13275C1.64954 1.50932 1.29398 1.94453 1.0061 2.53718C0.695683 3.17644 0.596484 3.60962 0.592247 4.34491C0.585129 5.57163 0.999212 6.48442 1.97075 7.38399C2.29021 7.67972 2.53002 7.83575 3.06494 8.09606C3.90446 8.5045 4.41977 8.67431 6.25304 9.14664C7.03934 9.34921 7.87824 9.59077 8.11726 9.68342C9.08908 10.0601 9.44176 10.4836 9.44334 11.2758C9.44509 12.1569 8.74674 12.922 7.66883 13.2198C7.50201 13.2659 7.07262 13.3188 6.71457 13.3372C4.80369 13.4357 3.61579 12.6093 3.16792 10.8697C3.06579 10.473 3.04844 10.445 2.89603 10.4313C2.71842 10.4152 0.0607746 10.6704 0.0241681 10.7071C-0.0195564 10.7508 0.163194 11.6558 0.309733 12.1213C0.605466 13.0607 0.948765 13.6692 1.5391 14.3002C2.55759 15.3891 3.95592 15.9149 6.03797 15.9918C7.44139 16.0437 8.7642 15.8473 9.73557 15.443C12.0153 14.4939 13.1065 12.0875 12.3644 9.64546C12.0727 8.68567 11.3891 7.84089 10.4682 7.30202C9.74924 6.88144 8.51953 6.45498 6.91359 6.06937C5.43278 5.71376 4.38209 5.33205 4.00061 5.01106C3.58568 4.66194 3.46354 3.99918 3.72651 3.52369C4.03863 2.95929 4.94972 2.61593 6.15096 2.60994C7.19916 2.60469 7.97061 2.84337 8.36786 3.29586C8.58241 3.54019 8.90187 4.21752 8.95277 4.53602C8.97344 4.66533 9.00802 4.78199 9.02954 4.79532C9.05106 4.80859 9.7628 4.79012 10.6112 4.75425L12.1537 4.689L12.1184 4.27215C12.0681 3.6769 11.9421 3.23203 11.6589 2.65017C10.9741 1.2433 9.69614 0.398356 7.81813 0.110645C7.11804 0.0034237 6.13028 -0.029963 5.38832 0.0285623ZM27.2223 7.98862V15.728H28.8041H30.3858V12.8267V9.92549L32.3489 9.89255C34.3859 9.85843 35.0868 9.80442 35.7723 9.62891C37.5242 9.18042 38.761 7.78366 39.0298 5.95023C39.1292 5.27216 39.0738 4.08392 38.9154 3.49754C38.5692 2.21603 37.744 1.22867 36.5768 0.699455C35.7469 0.323109 34.7686 0.251308 30.4564 0.250122L27.2223 0.249275V7.98862ZM44.457 0.376381C44.1609 1.14608 42.9887 4.16137 42.3323 5.84194C41.8772 7.00708 41.2929 8.50693 41.034 9.17494C40.775 9.84295 40.1036 11.5687 39.5419 13.0099C38.9802 14.4512 38.5206 15.6527 38.5206 15.68C38.5206 15.7077 39.2483 15.723 40.17 15.7147L41.8194 15.6997L42.4468 13.9767L43.0742 12.2537H46.1714H49.2687L49.5744 13.0446C49.7425 13.4796 50.0463 14.2613 50.2495 14.7817L50.6191 15.728H52.3152C53.9064 15.728 54.0092 15.7219 53.976 15.6291C53.9565 15.5748 52.5635 12.092 50.8805 7.88976L47.8205 0.249275H46.1632H44.5059L44.457 0.376381ZM34.3402 3.04261C35.0537 3.27242 35.5399 3.72271 35.7431 4.3418C36.0818 5.37317 35.6807 6.42696 34.7713 6.89528C34.2655 7.15582 33.8745 7.20536 32.0664 7.23796L30.3858 7.26829V5.08105V2.89381L32.2077 2.91816C33.7507 2.93878 34.0771 2.95782 34.3402 3.04261ZM47.2002 6.75942C47.7697 8.28988 48.236 9.54852 48.2364 9.55626C48.2368 9.564 47.2981 9.57038 46.1504 9.57038H44.0636L44.2817 8.96309C45.1531 6.5374 46.1195 3.93145 46.1401 3.95201C46.1537 3.96557 46.6307 5.22889 47.2002 6.75942Z" fill="#0048AA"/>
<path d="M15.8226 3.2714C16.816 1.62428 18.5344 0.495917 20.6049 0.131094C21.6139 -0.0467411 22.8921 -0.00143425 23.8531 0.246112C24.264 0.351977 25.1647 0.752389 25.2301 0.858254C25.2632 0.911695 24.9044 2.66175 24.8491 2.71705C24.8324 2.73377 24.722 2.6709 24.6038 2.57735C24.0798 2.16225 23.2807 1.85499 22.4805 1.76076C21.4431 1.63869 20.2928 1.84844 19.3621 2.32941C18.6109 2.71756 17.7281 3.73238 17.3091 4.68957C17.1435 5.06801 16.9612 5.66258 16.9612 5.82454C16.9612 5.88329 17.6583 5.89741 20.555 5.89741H24.1487L24.1228 6.02452C24.1085 6.09446 24.0484 6.39945 23.9891 6.70231L23.8814 7.25299L20.3365 7.2531L16.7917 7.25321V7.95936V8.6655H20.1812C22.0454 8.6655 23.5703 8.68454 23.5699 8.70787C23.569 8.76221 23.3694 9.71805 23.3163 9.92244L23.276 10.0778H20.1458H17.0155L17.0499 10.2331C17.2866 11.304 17.4868 11.764 18.076 12.5907C18.4977 13.1824 19.5541 13.8407 20.4919 14.0963C21.11 14.2647 22.4244 14.2792 23.0905 14.1249C23.6162 14.0032 24.3 13.7038 24.5983 13.4649C24.713 13.373 24.8211 13.2978 24.8384 13.2978C24.8558 13.2978 24.87 13.7652 24.87 14.3363C24.87 15.2757 24.8605 15.3778 24.7711 15.4063C24.7168 15.4236 24.4481 15.5157 24.1741 15.611C23.4962 15.8467 22.7843 15.9525 21.8759 15.9523C20.2555 15.9521 18.9714 15.6063 17.7766 14.8483C17.3297 14.5648 16.5375 13.7612 16.2126 13.2618C15.6606 12.4133 15.2127 11.3291 15.0173 10.368L14.9557 10.0651L14.1507 10.0741C13.7076 10.079 13.3457 10.0603 13.3457 10.0325C13.3457 10.0047 13.4093 9.69461 13.4869 9.3434C13.5646 8.99219 13.6282 8.69454 13.6282 8.68188C13.6282 8.66923 13.876 8.66386 14.179 8.66996C14.5622 8.6777 14.7281 8.66155 14.7241 8.61681C14.721 8.58144 14.7147 8.26017 14.71 7.90286L14.7015 7.25321H14.0236C13.5633 7.25321 13.3457 7.23304 13.3457 7.19034C13.3457 7.15571 13.3971 6.90788 13.4599 6.63954C13.5227 6.37121 13.5865 6.0953 13.6017 6.02644C13.6279 5.90792 13.6618 5.90035 14.2343 5.88521L14.8392 5.86917L14.912 5.58671C15.1585 4.63076 15.4504 3.88863 15.8226 3.2714Z" fill="#E7A415"/>
</svg>
