<svg width="56" height="28" viewBox="0 0 56 28" fill="none" xmlns="http://www.w3.org/2000/svg">
<g clip-path="url(#clip0_1443_18764)">
<path d="M26.4926 14.4436V20.8145H24.4375V5.05859H29.7808C31.0824 5.05859 32.3155 5.53812 33.2745 6.42867C34.2336 7.25072 34.7131 8.48379 34.7131 9.78537C34.7131 11.0869 34.2336 12.2515 33.2745 13.1421C32.3155 14.0326 31.1509 14.5121 29.7808 14.5121L26.4926 14.4436ZM26.4926 6.9767V12.457H29.9178C30.6714 12.457 31.4249 12.183 31.9044 11.635C33.0005 10.6074 33.0005 8.89482 31.9729 7.86726L31.9044 7.79875C31.3564 7.25072 30.6714 6.9082 29.9178 6.9767H26.4926Z" fill="#5F6368"/>
<path d="M39.4397 9.7168C40.9468 9.7168 42.1113 10.1278 43.0019 10.9499C43.8924 11.7719 44.3034 12.868 44.3034 14.2381V20.8144H42.3853V19.3073H42.3168C41.4948 20.5404 40.3302 21.157 38.9601 21.157C37.7956 21.157 36.768 20.8144 35.946 20.1294C35.1924 19.4444 34.7129 18.4853 34.7129 17.4577C34.7129 16.3617 35.1239 15.4711 35.946 14.7861C36.768 14.101 37.9326 13.827 39.3027 13.827C40.5357 13.827 41.4948 14.0325 42.2483 14.5121V14.0325C42.2483 13.3475 41.9743 12.6625 41.4263 12.2514C40.8782 11.7719 40.1932 11.4979 39.4397 11.4979C38.2751 11.4979 37.3845 11.9774 36.768 12.9365L34.9869 11.8404C36.083 10.4018 37.5216 9.7168 39.4397 9.7168ZM36.8365 17.5262C36.8365 18.0743 37.1105 18.5538 37.5216 18.8278C38.0011 19.1703 38.5491 19.3759 39.0971 19.3759C39.9192 19.3759 40.7412 19.0333 41.3578 18.4168C42.0428 17.8003 42.3853 17.0467 42.3853 16.2247C41.7688 15.7451 40.8782 15.4711 39.7137 15.4711C38.8916 15.4711 38.2066 15.6766 37.6586 16.0877C37.1105 16.4302 36.8365 16.9097 36.8365 17.5262Z" fill="#5F6368"/>
<path d="M55.4016 10.0605L48.6197 25.6109H46.5646L49.0992 20.1991L44.6465 10.1291H46.8386L50.0583 17.87H50.1268L53.278 10.1291H55.4016V10.0605Z" fill="#5F6368"/>
<path d="M18.3406 13.0742C18.3406 12.4577 18.2721 11.8411 18.2036 11.2246H9.64062V14.7183H14.5044C14.2989 15.8144 13.6824 16.8419 12.7233 17.4585V19.7191H15.669C17.3816 18.1435 18.3406 15.8144 18.3406 13.0742Z" fill="#4285F4"/>
<path d="M9.64011 21.912C12.1063 21.912 14.1614 21.0899 15.6685 19.7198L12.7228 17.4592C11.9007 18.0072 10.8732 18.3497 9.64011 18.3497C7.31097 18.3497 5.25585 16.7742 4.57082 14.582H1.55664V16.9112C3.13223 19.9938 6.21491 21.912 9.64011 21.912Z" fill="#34A853"/>
<path d="M4.57043 14.5806C4.15941 13.4846 4.15941 12.2515 4.57043 11.0869V8.75781H1.55626C0.254684 11.2925 0.254684 14.3066 1.55626 16.9098L4.57043 14.5806Z" fill="#FBBC04"/>
<path d="M9.63996 7.38816C10.9415 7.38816 12.1746 7.86768 13.1337 8.75824L15.7368 6.15509C14.0927 4.648 11.9006 3.75745 9.70847 3.82595C6.28327 3.82595 3.13209 5.74406 1.625 8.82674L4.63917 11.1559C5.25571 8.96375 7.31083 7.38816 9.63996 7.38816Z" fill="#EA4335"/>
</g>
<defs>
<clipPath id="clip0_1443_18764">
<rect width="54.8032" height="26.1" fill="white" transform="translate(0.597656 0.949219)"/>
</clipPath>
</defs>
</svg>
